# xmcd
#
# Track frame offsets:
#	150
#	11282
#	20343
#	29501
#	39330
#	54399
#	64649
#	77739
#	89606
#	98905
#	109241
#	121053
#	132537
#	159228
#	187253
#	197462
#	211435
#	220603
#	230167
#	245721
#	252264
#
# Disc length: 3570 seconds
# Revision: 0
# Processed by: cddbd v1.5.2PL0 Copyright (c) Steve Scherf et al.
# Submitted via: dBpowerAMP V12.0
#
DISCID=210df015
DTITLE=Jim Reeves - Four Albums on Two Discs 
DYEAR=2016
DGENRE=Country
TTITLE0=Where do I go to Throw a Picture Away
TTITLE1=You Kept me Awake Last Night
TTITLE2=I’m Crying Again
TTITLE3=Oh, How I Miss You Tonight
TTITLE4=Lonesome Waltz
TTITLE5=Your Wedding
TTITLE6=When You Are Gone
TTITLE7=Missing You
TTITLE8=Honey, Won’t You Please Come Home
TTITLE9=In a Mansion Stands my Love
TTITLE10=I’m Glad You’re Better
TTITLE11=Medley: Mexican Joe/Yonder Comes a Sucker 
TTITLE12=Medley: Dialogue/Four Walls/I Missed me/Tennessee Waltz/I Really Don’t Want to Know/He’ll Have to Go 
TTITLE13=Medley Dialogue/ Walking The Floor Over You/Dialogue/There Stands The Glass/Dialogue/One by One/Dialogue/Guess Things Happen That Way/Dialogue/I Want to be With You Always
TTITLE14=Dialogue/ Wildwood Flower 
TTITLE15=Dialogue/The Blizzard
TTITLE16=Dialogue/Your Old Love Letters
TTITLE17=Dialogue/am I Losing You
TTITLE18=Dialogue/Bimbo
TTITLE19=Dialogue/Stand at Your Window
TTITLE20=Dialogue/Danny Boy/ Dialogue
EXTD=
EXTT0=
EXTT1=
EXTT2=
EXTT3=
EXTT4=
EXTT5=
EXTT6=
EXTT7=
EXTT8=
EXTT9=
EXTT10=
EXTT11=
EXTT12=
EXTT13=
EXTT14=
EXTT15=
EXTT16=
EXTT17=
EXTT18=
EXTT19=
EXTT20=
PLAYORDER=
